<svg xmlns="http://www.w3.org/2000/svg" viewBox="0 0 183.31 206.11"><defs><style>.cls-1{fill:#2424d1;fill-rule:evenodd;}</style></defs><title>logologo-2</title><g id="Layer_2" data-name="Layer 2"><g id="Layer_1-2" data-name="Layer 1"><path d="M23.73,149.88v12.59a12.7,12.7,0,0,1-1.23,5.82A8.62,8.62,0,0,1,18.94,172a11.4,11.4,0,0,1-5.61,1.29,12.31,12.31,0,0,1-5.68-1.22A8.32,8.32,0,0,1,4,168.52a11.56,11.56,0,0,1-1.26-5.58V140.77A13.11,13.11,0,0,1,4,134.85a8.56,8.56,0,0,1,3.56-3.75,11.46,11.46,0,0,1,5.61-1.29,11.43,11.43,0,0,1,5.5,1.24,8.24,8.24,0,0,1,3.5,3.65,13,13,0,0,1,1.23,5.74v2.7H16.67v-2.7a5.91,5.91,0,0,0-.41-2.3,3.14,3.14,0,0,0-1.2-1.45,3.52,3.52,0,0,0-1.91-.49,4,4,0,0,0-2.11.54,3.46,3.46,0,0,0-1.34,1.57,5.74,5.74,0,0,0-.47,2.46v22.17a4.44,4.44,0,0,0,.48,2.11,3.14,3.14,0,0,0,1.41,1.38,4.84,4.84,0,0,0,2.21.47,4.38,4.38,0,0,0,2.17-.51,3.49,3.49,0,0,0,1.39-1.48,5.34,5.34,0,0,0,.48-2.38V156H13.18v-6.09Z" transform="translate(-2.75)"/><path d="M45,172.06a8.64,8.64,0,0,1-3.68-3.55,11.44,11.44,0,0,1-1.27-5.6V140.18a11.51,11.51,0,0,1,1.27-5.61A8.53,8.53,0,0,1,45,131a12.71,12.71,0,0,1,5.8-1.21,12.74,12.74,0,0,1,5.8,1.21,8.53,8.53,0,0,1,3.68,3.55,11.51,11.51,0,0,1,1.27,5.61v22.73a11.44,11.44,0,0,1-1.27,5.6,8.64,8.64,0,0,1-3.68,3.55,12.61,12.61,0,0,1-5.8,1.23A12.58,12.58,0,0,1,45,172.06Zm8.11-5.63a3.41,3.41,0,0,0,1.47-1.51,5.17,5.17,0,0,0,.5-2.36V140.5a5.2,5.2,0,0,0-.5-2.36,3.36,3.36,0,0,0-1.47-1.49,4.86,4.86,0,0,0-2.31-.51,4.93,4.93,0,0,0-2.32.51A3.39,3.39,0,0,0,47,138.14a5.2,5.2,0,0,0-.5,2.36v22.06a5.17,5.17,0,0,0,.5,2.36,3.44,3.44,0,0,0,1.46,1.51,4.82,4.82,0,0,0,2.32.53A4.75,4.75,0,0,0,53.13,166.43Z" transform="translate(-2.75)"/><path d="M78.49,130.25h6.45v42.6H78.49Zm4.19,36.47H89.3a2.92,2.92,0,0,0,2.3-.89,3.64,3.64,0,0,0,.81-2.53V139.8a3.67,3.67,0,0,0-.81-2.54,3,3,0,0,0-2.3-.89H82.68v-6.12H89.6a10.77,10.77,0,0,1,5,1.08,7.41,7.41,0,0,1,3.17,3.15,10.43,10.43,0,0,1,1.1,5v24.14a10.46,10.46,0,0,1-1.11,5,7.48,7.48,0,0,1-3.19,3.16,10.77,10.77,0,0,1-5,1.09H82.68Z" transform="translate(-2.75)"/><path d="M121.93,172.85h-6.45v-42.6h6.45Z" transform="translate(-2.75)"/><path d="M139.11,130.22h6.36v42.63h-6.36ZM142,148.71h7.8a4.65,4.65,0,0,0,2.08-.44,3,3,0,0,0,1.33-1.28,4.54,4.54,0,0,0,.48-2.06v-4.54a4.83,4.83,0,0,0-.45-2.17,3.08,3.08,0,0,0-1.35-1.39,4.25,4.25,0,0,0-2.09-.49H142v-6.12h7.33a13.92,13.92,0,0,1,5.86,1.13,8.17,8.17,0,0,1,3.72,3.31,10.09,10.09,0,0,1,1.29,5.23v5a10.57,10.57,0,0,1-1.29,5.37,8.34,8.34,0,0,1-3.74,3.42,13.43,13.43,0,0,1-5.84,1.17H142Zm6.62,4.8,6-1.35,6.83,20.69h-7Z" transform="translate(-2.75)"/><path d="M184.34,172.85h-6.45v-42.6h6.45Z" transform="translate(-2.75)"/><path d="M6.66,205.85H4.13V180.29H6.66Z" transform="translate(-2.75)"/><path d="M13.24,187.6h2.53v18.25H13.24ZM21.85,193a3.6,3.6,0,0,0-.75-2.49,2.94,2.94,0,0,0-2.29-.83,2.81,2.81,0,0,0-2.29.91,4.29,4.29,0,0,0-.75,2.76l-.37-2.63a5.58,5.58,0,0,1,1.72-2.55,4.12,4.12,0,0,1,2.62-.85,4.25,4.25,0,0,1,3.49,1.42A6.62,6.62,0,0,1,24.38,193v12.89H21.85Z" transform="translate(-2.75)"/><path d="M29.36,187.6h7.88V190H29.36Zm2.91,17.11a5.51,5.51,0,0,1-1-3.61V182.29h2.54v18.85A2.79,2.79,0,0,0,34.3,203a1.94,1.94,0,0,0,1.57.63h1.37v2.35H35.52A4,4,0,0,1,32.27,204.71Z" transform="translate(-2.75)"/><path d="M45,205.4a4.74,4.74,0,0,1-1.9-2.08,7.42,7.42,0,0,1-.65-3.27v-6.33a8.48,8.48,0,0,1,.64-3.48,4.74,4.74,0,0,1,1.85-2.2,5.45,5.45,0,0,1,2.92-.76,5.82,5.82,0,0,1,3,.7,4.43,4.43,0,0,1,1.86,2,7.32,7.32,0,0,1,.65,3.21v4.54H43.94V195.4h6.8v-2.1a4.17,4.17,0,0,0-.77-2.7,2.62,2.62,0,0,0-2.16-1,2.53,2.53,0,0,0-2.13,1,4.74,4.74,0,0,0-.75,2.87v6.6a4.1,4.1,0,0,0,.79,2.68,2.74,2.74,0,0,0,2.23.95,2.84,2.84,0,0,0,2.1-.75,2.93,2.93,0,0,0,.75-2.15v-.1h2.53v.1a5.18,5.18,0,0,1-1.41,3.89,5.47,5.47,0,0,1-4,1.37A6,6,0,0,1,45,205.4Z" transform="translate(-2.75)"/><path d="M59.36,187.6H61.9v18.25H59.36Zm8.29,2h-.06a6.26,6.26,0,0,0-4.06,1.22,4.57,4.57,0,0,0-1.63,3.44l-.37-3.52a7.27,7.27,0,0,1,2.63-2.57,7,7,0,0,1,3.55-.93v2.36Z" transform="translate(-2.75)"/><path d="M73.13,187.6h2.54v18.25H73.13ZM81.75,193a3.55,3.55,0,0,0-.76-2.49,2.9,2.9,0,0,0-2.28-.83,2.81,2.81,0,0,0-2.29.91,4.29,4.29,0,0,0-.75,2.76l-.37-2.63A5.5,5.5,0,0,1,77,188.13a4.12,4.12,0,0,1,2.62-.85,4.25,4.25,0,0,1,3.49,1.42A6.62,6.62,0,0,1,84.28,193v12.89H81.75Z" transform="translate(-2.75)"/><path d="M91.6,204.84A5.43,5.43,0,0,1,90.4,201a6.58,6.58,0,0,1,1.4-4.59A5.44,5.44,0,0,1,96,194.88h3.25l.25,1.83H96a2.93,2.93,0,0,0-2.49,1.07,5.2,5.2,0,0,0-.83,3.21,3.46,3.46,0,0,0,.76,2.45,3,3,0,0,0,2.27.81,3.36,3.36,0,0,0,2.53-.89,3.78,3.78,0,0,0,.84-2.68l.37,1.51a4.62,4.62,0,0,1-.5,2.18,3,3,0,0,1-1.43,1.31,5.76,5.76,0,0,1-2.38.43A4.7,4.7,0,0,1,91.6,204.84Zm7.52-12.35a3.06,3.06,0,0,0-.82-2.29,3.13,3.13,0,0,0-2.31-.81,2.62,2.62,0,0,0-2,.81,3.33,3.33,0,0,0-.73,2.29H90.77a5.09,5.09,0,0,1,1.39-3.84,5.36,5.36,0,0,1,3.92-1.37,6.39,6.39,0,0,1,2.92.62,4.2,4.2,0,0,1,1.84,1.77,5.76,5.76,0,0,1,.64,2.82v13.36H99.12Z" transform="translate(-2.75)"/><path d="M106.46,187.6h7.87V190h-7.87Zm2.91,17.11a5.45,5.45,0,0,1-1-3.61V182.29h2.53v18.85a2.79,2.79,0,0,0,.53,1.81,1.91,1.91,0,0,0,1.56.63h1.37v2.35h-1.72A4,4,0,0,1,109.37,204.71Z" transform="translate(-2.75)"/><path d="M120.21,181.29h2.53v2.53h-2.53Zm0,6.31h2.53v18.25h-2.53Z" transform="translate(-2.75)"/><path d="M131.55,205.49a4.25,4.25,0,0,1-1.79-1.82,6.23,6.23,0,0,1-.61-2.87v-8.3a6,6,0,0,1,.61-2.82,4.16,4.16,0,0,1,1.79-1.78,6.77,6.77,0,0,1,5.66,0,4.13,4.13,0,0,1,1.8,1.78,6,6,0,0,1,.61,2.82v8.35a6.08,6.08,0,0,1-.61,2.84,4.12,4.12,0,0,1-1.8,1.8,6.77,6.77,0,0,1-5.66,0Zm4.83-2.49a3,3,0,0,0,.71-2.15V192.5a3,3,0,0,0-.72-2.11,2.65,2.65,0,0,0-2-.75,2.59,2.59,0,0,0-2,.75,3,3,0,0,0-.7,2.11v8.35a3,3,0,0,0,.7,2.15,2.59,2.59,0,0,0,2,.75A2.65,2.65,0,0,0,136.38,203Z" transform="translate(-2.75)"/><path d="M145.66,187.6h2.53v18.25h-2.53Zm8.61,5.36a3.6,3.6,0,0,0-.75-2.49,2.94,2.94,0,0,0-2.29-.83,2.77,2.77,0,0,0-2.28.91,4.23,4.23,0,0,0-.76,2.76l-.37-2.63a5.58,5.58,0,0,1,1.72-2.55,4.12,4.12,0,0,1,2.62-.85,4.25,4.25,0,0,1,3.49,1.42A6.62,6.62,0,0,1,156.8,193v12.89h-2.53Z" transform="translate(-2.75)"/><path d="M164.12,204.84a5.43,5.43,0,0,1-1.19-3.85,6.58,6.58,0,0,1,1.39-4.59,5.46,5.46,0,0,1,4.23-1.52h3.25l.25,1.83h-3.48a3,3,0,0,0-2.5,1.07,5.2,5.2,0,0,0-.82,3.21,3.5,3.5,0,0,0,.75,2.45,3,3,0,0,0,2.27.81,3.33,3.33,0,0,0,2.53-.89,3.78,3.78,0,0,0,.85-2.68l.36,1.51a4.5,4.5,0,0,1-.5,2.18,3,3,0,0,1-1.43,1.31,5.67,5.67,0,0,1-2.37.43A4.73,4.73,0,0,1,164.12,204.84Zm7.53-12.35a3.1,3.1,0,0,0-.82-2.29,3.16,3.16,0,0,0-2.31-.81,2.61,2.61,0,0,0-2.05.81,3.28,3.28,0,0,0-.73,2.29H163.3a5.13,5.13,0,0,1,1.38-3.84,5.38,5.38,0,0,1,3.92-1.37,6.39,6.39,0,0,1,2.92.62,4.22,4.22,0,0,1,1.85,1.77,5.87,5.87,0,0,1,.63,2.82v13.36h-2.35Z" transform="translate(-2.75)"/><path d="M182.92,201.05a2.78,2.78,0,0,0,.52,1.8,1.76,1.76,0,0,0,1.47.64h1.16v2.36h-1.41a4,4,0,0,1-3.16-1.27,5.23,5.23,0,0,1-1.11-3.57V180.29h2.53Z" transform="translate(-2.75)"/><path class="cls-1" d="M93.38,0A61.44,61.44,0,1,1,31.94,61.44,61.44,61.44,0,0,1,93.38,0Zm16.5,6.64a58,58,0,0,1,39.37,47.1l-2-.21c-.35,1.5-.67,1.54-.67,3.34,0,1.59,2,2.65,2,6,0,.9-2.13,2.69-2.22,3l-3.16-3.68v4.52l-.47,0-.85-8.61-1.75.55-2.08-6.4-6.85,7.15-.08,5L129,65.92l-2.33-13.43-1.4,1-3.15-4.34-4.72.14-1.81-2.1-1.85.51-3.64-4.25-.7.49,2.26,5.88h2.61v-1h1.33c1,2.64,2,1.07,2,2.65,0,5.51-6.84,9.56-11.33,10.6.24,1,.15,2,1.33,2,2.51,0,1.27-.44,4-.66-.12,5.63-6.49,12.36-9.21,16.55l1.21,8.63c.33,1.88-3.91,3.86-5.35,6l.69,3.3-2,.79c-.35,3.4-3.66,7.17-7.39,7.17h-4c0-4.66-3.34-11.3-3.34-14.59,0-2.79,1.33-3.17,1.33-6.62,0-3.2-3.33-7.78-3.33-8.62V70.85H77.58c-.39-1.49-.15-2-2-2h-.91l-5.33,1H66.5c-2.25,0-6.25-7.72-6.25-8.67v-8c0-3.45,3-7.21,5-8.67V41.18l2.81-3,1.57-.28c3.35,0,3-2,5-2h6.62v4.9l6.46,3,.6-3c2.93.74,3.69,2.14,7.29,2.14h1.31c2.47,0,2.6-3.53,2.6-6.3l-5.22.55L92,31.79l-2.26.64c.4,1.91.63,1.11.63,2.72,0,.94-.73,1.05-1.31,1.4l-2.26-6.16L82,26.67l-.64.68L85.45,32c-.55,1.68-.61,6.52-2.89,3.13l2.13-1.1-5.32-6L76.19,29.4,73,32.63c-.33,2.61-1,3.92-3.53,3.92-1.69,0-.67-.47-3.26-.7v-6H72l-2-4.91-.81.44V24l9.84-4.49c-.19-1.4-.41-.65-.41-2.18A13.72,13.72,0,0,1,79.35,16l2.52,1.56-.61-2.87-3.88.8L76.65,12c3.09-1.62,12-7.19,12-7.19h1.47c2.13,0,7.81,2.08,8.74,3.33L93.5,7.64l4,3.27.38-1.4,3-.81,0-1.85h1.34v2l7.63-2.21Zm39,65.19c-.16.85-.33,1.68-.52,2.51l-.3-2.15.82-.36Zm-1.92,8c-.15,0-.3.44-.46,1h-.28v-1ZM43.35,93.18A57.45,57.45,0,0,1,35.43,75l10.82,5.22.06,3.23c0,1.19-2,3.71-2.67,4.67l-.29,5.11Z" transform="translate(-2.75)"/></g></g></svg>