<svg xmlns="http://www.w3.org/2000/svg" viewBox="0 0 245.84 93.83"><defs><style>.cls-1{opacity:0.74;}.cls-2{fill:#2424d1;fill-rule:evenodd;}</style></defs><title>logologo-5</title><g id="Layer_2" data-name="Layer 2"><g id="Layer_1-2" data-name="Layer 1"><g class="cls-1"><path class="cls-2" d="M46.8,0A46.8,46.8,0,1,1,0,46.8,46.81,46.81,0,0,1,46.8,0ZM59.36,5.06a44.2,44.2,0,0,1,30,35.88l-1.5-.16a7.44,7.44,0,0,0-.51,2.54c0,1.21,1.54,2,1.54,4.57,0,.68-1.62,2-1.69,2.29l-2.41-2.8v3.44h-.36l-.64-6.56-1.33.42-1.59-4.88-5.22,5.45-.06,3.83-1.67,1.14L72.14,40l-1.07.79-2.4-3.31-3.59.11L63.7,36l-1.41.4-2.77-3.24-.54.37L60.7,38h2v-.76h1c.73,2,1.52.82,1.52,2,0,4.19-5.21,7.28-8.63,8.07.18.76.11,1.52,1,1.52,1.92,0,1-.33,3-.51-.1,4.29-4.95,9.42-7,12.61l.93,6.58c.24,1.43-3,2.94-4.08,4.55L51,74.57l-1.48.59c-.26,2.59-2.79,5.46-5.63,5.46h-3c0-3.54-2.54-8.6-2.54-11.11,0-2.12,1-2.41,1-5,0-2.44-2.53-5.93-2.53-6.57V54h-2c-.3-1.13-.11-1.52-1.52-1.52h-.69l-4.07.76H26.32c-1.72,0-4.76-5.88-4.76-6.6V40.51c0-2.63,2.26-5.5,3.81-6.61V31.37L27.51,29l1.19-.21c2.56,0,2.25-1.53,3.81-1.53h5.05V31l4.91,2.25L42.94,31c2.22.56,2.8,1.63,5.55,1.63h1c1.89,0,2-2.69,2-4.8l-4,.42-1.73-4.05L44,24.7c.31,1.45.47.85.47,2.07,0,.72-.55.8-1,1.07L41.8,23.15l-3.7-2.84-.49.52,3.15,3.56c-.42,1.28-.47,5-2.21,2.38l1.63-.84-4-4.55-2.43,1-2.4,2.46c-.25,2-.75,3-2.68,3-1.29,0-.51-.36-2.49-.54V22.73h4.39L29,19l-.61.34v-1l7.49-3.42c-.14-1.07-.31-.5-.31-1.66,0-.07.5-1,.51-1L38,13.41l-.46-2.19-3,.61-.55-2.66c2.34-1.24,9.16-5.48,9.16-5.48h1.12C46,3.69,50.29,5.27,51,6.23l-4.11-.41,3,2.49.29-1.06,2.28-.62,0-1.42h1V6.74l5.81-1.68ZM89.09,54.72c-.12.64-.25,1.27-.39,1.9L88.47,55l.62-.26Zm-1.46,6.1c-.11,0-.23.34-.35.76h-.21v-.76ZM8.69,71a43.57,43.57,0,0,1-6-13.88l8.24,4,0,2.46c0,.9-1.54,2.82-2,3.55L8.69,71Z"/></g><path d="M83.5,47.6V60.19A12.7,12.7,0,0,1,82.27,66a8.54,8.54,0,0,1-3.56,3.7A11.4,11.4,0,0,1,73.1,71a12.34,12.34,0,0,1-5.68-1.21,8.35,8.35,0,0,1-3.63-3.55,11.56,11.56,0,0,1-1.26-5.58V38.48a13.09,13.09,0,0,1,1.23-5.91,8.5,8.5,0,0,1,3.56-3.75,12.81,12.81,0,0,1,11.1-.05,8.24,8.24,0,0,1,3.5,3.65,13,13,0,0,1,1.23,5.74v2.7H76.44v-2.7a5.7,5.7,0,0,0-.41-2.3,3.09,3.09,0,0,0-1.2-1.45,3.52,3.52,0,0,0-1.9-.5,3.86,3.86,0,0,0-2.11.55A3.45,3.45,0,0,0,69.47,36,6,6,0,0,0,69,38.48V60.66a4.33,4.33,0,0,0,.49,2.11,3.17,3.17,0,0,0,1.4,1.38,4.87,4.87,0,0,0,2.21.47,4.25,4.25,0,0,0,2.17-.52,3.32,3.32,0,0,0,1.39-1.48,5.13,5.13,0,0,0,.49-2.37V53.69H73V47.6Z"/><path d="M104.79,69.77a8.56,8.56,0,0,1-3.68-3.54,11.47,11.47,0,0,1-1.27-5.6V37.9a11.51,11.51,0,0,1,1.27-5.61,8.42,8.42,0,0,1,3.68-3.55,14.51,14.51,0,0,1,11.6,0,8.42,8.42,0,0,1,3.68,3.55,11.51,11.51,0,0,1,1.27,5.61V60.63a11.47,11.47,0,0,1-1.27,5.6,8.56,8.56,0,0,1-3.68,3.54,14.29,14.29,0,0,1-11.6,0Zm8.12-5.62a3.49,3.49,0,0,0,1.46-1.51,5.2,5.2,0,0,0,.5-2.36V38.22a5.2,5.2,0,0,0-.5-2.36,3.39,3.39,0,0,0-1.46-1.49,4.93,4.93,0,0,0-2.32-.52,4.86,4.86,0,0,0-2.31.52,3.36,3.36,0,0,0-1.47,1.49,5.2,5.2,0,0,0-.5,2.36V60.28a5.2,5.2,0,0,0,.5,2.36,3.46,3.46,0,0,0,1.47,1.51,4.75,4.75,0,0,0,2.31.53A4.82,4.82,0,0,0,112.91,64.15Z"/><path d="M138.27,28h6.44V70.56h-6.44Zm4.19,36.47h6.62a3,3,0,0,0,2.3-.89,3.7,3.7,0,0,0,.8-2.54V37.52a3.7,3.7,0,0,0-.8-2.54,3,3,0,0,0-2.3-.89h-6.62V28h6.91a10.77,10.77,0,0,1,5,1.08,7.33,7.33,0,0,1,3.18,3.15,10.54,10.54,0,0,1,1.1,5V61.34a10.35,10.35,0,0,1-1.12,5,7.43,7.43,0,0,1-3.19,3.16,10.77,10.77,0,0,1-5,1.08h-6.88Z"/><path d="M181.7,70.56h-6.44V28h6.44Z"/><path d="M198.89,27.94h6.35V70.56h-6.35Zm2.93,18.48h7.79a4.52,4.52,0,0,0,2.08-.44A2.92,2.92,0,0,0,213,44.71a4.45,4.45,0,0,0,.49-2.07V38.1a4.86,4.86,0,0,0-.46-2.17,3.18,3.18,0,0,0-1.35-1.39,4.33,4.33,0,0,0-2.09-.48h-7.79V27.94h7.32A13.86,13.86,0,0,1,215,29.06a8.25,8.25,0,0,1,3.72,3.32A10.05,10.05,0,0,1,220,37.6v5A10.57,10.57,0,0,1,218.72,48,8.3,8.3,0,0,1,215,51.37a13.33,13.33,0,0,1-5.85,1.18h-7.32Zm6.62,4.81,5.94-1.35,6.83,20.68h-7Z"/><path d="M244.11,70.56h-6.45V28h6.45Z"/><path d="M66.43,93.56H63.9V68h2.53Z"/><path d="M73,75.32h2.53V93.56H73Zm8.62,5.36a3.63,3.63,0,0,0-.76-2.5,3,3,0,0,0-2.29-.82,2.77,2.77,0,0,0-2.28.91A4.23,4.23,0,0,0,75.54,81l-.37-2.64a5.61,5.61,0,0,1,1.73-2.54A4.1,4.1,0,0,1,79.52,75,4.2,4.2,0,0,1,83,76.42a6.62,6.62,0,0,1,1.16,4.26V93.56H81.63Z"/><path d="M89.14,75.32H97v2.35H89.14Zm2.91,17.11a5.45,5.45,0,0,1-1-3.61V70h2.53V88.85a2.7,2.7,0,0,0,.53,1.81,1.89,1.89,0,0,0,1.56.64H97v2.35H95.29A4,4,0,0,1,92.05,92.43Z"/><path d="M104.73,93.12a4.68,4.68,0,0,1-1.9-2.08,7.47,7.47,0,0,1-.66-3.28V81.43a8.55,8.55,0,0,1,.64-3.48,4.79,4.79,0,0,1,1.86-2.19,5.32,5.32,0,0,1,2.91-.76,5.82,5.82,0,0,1,3,.7,4.5,4.5,0,0,1,1.87,2,7.32,7.32,0,0,1,.64,3.21v4.54h-9.33V83.12h6.8V81a4.23,4.23,0,0,0-.77-2.7,2.66,2.66,0,0,0-2.17-1,2.47,2.47,0,0,0-2.12,1,4.67,4.67,0,0,0-.76,2.87v6.59a4.06,4.06,0,0,0,.79,2.68,2.73,2.73,0,0,0,2.23,1,2.81,2.81,0,0,0,2.1-.75,2.93,2.93,0,0,0,.75-2.15v-.1h2.53v.1a5.22,5.22,0,0,1-1.4,3.89,5.49,5.49,0,0,1-4,1.37A5.93,5.93,0,0,1,104.73,93.12Z"/><path d="M119.14,75.32h2.53V93.56h-2.53Zm8.29,2h-.07a6.2,6.2,0,0,0-4.06,1.22A4.59,4.59,0,0,0,121.67,82l-.37-3.52a7.41,7.41,0,0,1,2.64-2.58,7.06,7.06,0,0,1,3.55-.92v2.36Z"/><path d="M132.91,75.32h2.53V93.56h-2.53Zm8.61,5.36a3.63,3.63,0,0,0-.75-2.5,3,3,0,0,0-2.29-.82,2.77,2.77,0,0,0-2.28.91,4.23,4.23,0,0,0-.76,2.76l-.37-2.64a5.6,5.6,0,0,1,1.72-2.54,4.12,4.12,0,0,1,2.62-.85,4.22,4.22,0,0,1,3.49,1.42,6.62,6.62,0,0,1,1.15,4.26V93.56h-2.53Z"/><path d="M151.37,92.55a5.42,5.42,0,0,1-1.19-3.84,6.58,6.58,0,0,1,1.39-4.59,5.44,5.44,0,0,1,4.23-1.52h3.25l.25,1.82h-3.48a3,3,0,0,0-2.5,1.08,5.2,5.2,0,0,0-.82,3.21,3.5,3.5,0,0,0,.75,2.45,3,3,0,0,0,2.27.8,3.34,3.34,0,0,0,2.53-.88,3.79,3.79,0,0,0,.84-2.68l.37,1.51a4.65,4.65,0,0,1-.5,2.18,3,3,0,0,1-1.43,1.31,5.84,5.84,0,0,1-2.37.43A4.69,4.69,0,0,1,151.37,92.55Zm7.52-12.35a3.08,3.08,0,0,0-.81-2.28,3.16,3.16,0,0,0-2.31-.81,2.61,2.61,0,0,0-2.05.81A3.27,3.27,0,0,0,153,80.2h-2.45a5.16,5.16,0,0,1,1.39-3.84A5.41,5.41,0,0,1,155.85,75a6.39,6.39,0,0,1,2.92.62,4.22,4.22,0,0,1,1.85,1.77,5.83,5.83,0,0,1,.63,2.81V93.56h-2.36Z"/><path d="M166.23,75.32h7.88v2.35h-7.88Zm2.91,17.11a5.51,5.51,0,0,1-1-3.61V70h2.53V88.85a2.75,2.75,0,0,0,.53,1.81,1.9,1.9,0,0,0,1.57.64h1.37v2.35h-1.73A4,4,0,0,1,169.14,92.43Z"/><path d="M180,69h2.53v2.53H180Zm0,6.31h2.53V93.56H180Z"/><path d="M191.33,93.2a4.09,4.09,0,0,1-1.79-1.82,6.16,6.16,0,0,1-.62-2.86v-8.3a6,6,0,0,1,.62-2.82,4.1,4.1,0,0,1,1.79-1.78,6.77,6.77,0,0,1,5.66,0,4.16,4.16,0,0,1,1.79,1.78,6,6,0,0,1,.62,2.82v8.35a6.1,6.1,0,0,1-.62,2.84,4.15,4.15,0,0,1-1.79,1.8,6.06,6.06,0,0,1-2.83.62A5.91,5.91,0,0,1,191.33,93.2Zm4.82-2.48a3,3,0,0,0,.72-2.15V80.22a2.91,2.91,0,0,0-.73-2.11,3,3,0,0,0-4,0,3,3,0,0,0-.7,2.11v8.35a3.09,3.09,0,0,0,.7,2.15,3,3,0,0,0,4,0Z"/><path d="M205.43,75.32H208V93.56h-2.53ZM214,80.68a3.63,3.63,0,0,0-.75-2.5,3,3,0,0,0-2.29-.82,2.77,2.77,0,0,0-2.28.91A4.23,4.23,0,0,0,208,81l-.37-2.64a5.61,5.61,0,0,1,1.73-2.54,4.1,4.1,0,0,1,2.62-.85,4.2,4.2,0,0,1,3.48,1.42,6.62,6.62,0,0,1,1.16,4.26V93.56H214Z"/><path d="M223.9,92.55a5.42,5.42,0,0,1-1.2-3.84,6.58,6.58,0,0,1,1.4-4.59,5.44,5.44,0,0,1,4.23-1.52h3.25l.24,1.82h-3.48a2.94,2.94,0,0,0-2.49,1.08,5.2,5.2,0,0,0-.83,3.21,3.46,3.46,0,0,0,.76,2.45A3,3,0,0,0,228,92a3.36,3.36,0,0,0,2.54-.88,3.79,3.79,0,0,0,.84-2.68l.37,1.51a4.65,4.65,0,0,1-.5,2.18,3.06,3.06,0,0,1-1.44,1.31,5.84,5.84,0,0,1-2.37.43A4.67,4.67,0,0,1,223.9,92.55Zm7.52-12.35a3,3,0,0,0-.82-2.28,3.13,3.13,0,0,0-2.31-.81,2.62,2.62,0,0,0-2,.81,3.32,3.32,0,0,0-.73,2.28h-2.44a5.12,5.12,0,0,1,1.39-3.84A5.38,5.38,0,0,1,228.38,75a6.42,6.42,0,0,1,2.92.62,4.25,4.25,0,0,1,1.84,1.77,5.83,5.83,0,0,1,.63,2.81V93.56h-2.35Z"/><path d="M242.69,88.77a2.84,2.84,0,0,0,.52,1.8,1.81,1.81,0,0,0,1.47.64h1.16v2.35h-1.41a4,4,0,0,1-3.15-1.26,5.2,5.2,0,0,1-1.12-3.57V68h2.53Z"/></g></g></svg>