<svg xmlns="http://www.w3.org/2000/svg" viewBox="0 0 330.12 122.88"><defs><style>.cls-1{fill:#2424d1;fill-rule:evenodd;}</style></defs><title>logologo-1</title><g id="Layer_2" data-name="Layer 2"><g id="Layer_1-2" data-name="Layer 1"><path d="M167.79,55.88V68.47a12.7,12.7,0,0,1-1.23,5.82A8.62,8.62,0,0,1,163,78a11.46,11.46,0,0,1-5.61,1.29,12.35,12.35,0,0,1-5.69-1.22,8.35,8.35,0,0,1-3.63-3.55,11.56,11.56,0,0,1-1.26-5.58V46.77A13.11,13.11,0,0,1,148,40.85a8.56,8.56,0,0,1,3.56-3.75,12.81,12.81,0,0,1,11.1-.05,8.19,8.19,0,0,1,3.5,3.65,12.73,12.73,0,0,1,1.23,5.74v2.7h-6.7v-2.7a5.91,5.91,0,0,0-.41-2.3,3.22,3.22,0,0,0-1.21-1.45,3.49,3.49,0,0,0-1.9-.49,4,4,0,0,0-2.11.54,3.48,3.48,0,0,0-1.35,1.57,5.9,5.9,0,0,0-.47,2.46V68.94a4.44,4.44,0,0,0,.49,2.11,3.17,3.17,0,0,0,1.4,1.38,4.91,4.91,0,0,0,2.22.47,4.31,4.31,0,0,0,2.16-.51,3.51,3.51,0,0,0,1.4-1.48,5.34,5.34,0,0,0,.48-2.38V62h-4.19V55.88Z"/><path d="M189.07,78.06a8.62,8.62,0,0,1-3.67-3.55,11.45,11.45,0,0,1-1.28-5.6V46.18a11.51,11.51,0,0,1,1.28-5.61A8.5,8.5,0,0,1,189.07,37a14.51,14.51,0,0,1,11.6,0,8.47,8.47,0,0,1,3.68,3.55,11.51,11.51,0,0,1,1.28,5.61V68.91a11.45,11.45,0,0,1-1.28,5.6,8.58,8.58,0,0,1-3.68,3.55,14.29,14.29,0,0,1-11.6,0Zm8.12-5.63a3.44,3.44,0,0,0,1.46-1.51,5,5,0,0,0,.5-2.36V46.5a5.08,5.08,0,0,0-.5-2.36,3.39,3.39,0,0,0-1.46-1.49,5.51,5.51,0,0,0-4.63,0,3.47,3.47,0,0,0-1.47,1.49,5.2,5.2,0,0,0-.49,2.36V68.56a5.18,5.18,0,0,0,.49,2.36,3.51,3.51,0,0,0,1.47,1.51,5.32,5.32,0,0,0,4.63,0Z"/><path d="M222.55,36.25H229v42.6h-6.44Zm4.19,36.47h6.62a2.93,2.93,0,0,0,2.3-.89,3.64,3.64,0,0,0,.8-2.53V45.8a3.67,3.67,0,0,0-.8-2.54,3,3,0,0,0-2.3-.89h-6.62V36.25h6.91a10.77,10.77,0,0,1,5,1.08,7.38,7.38,0,0,1,3.18,3.15,10.55,10.55,0,0,1,1.1,5V69.62a10.46,10.46,0,0,1-1.11,5,7.51,7.51,0,0,1-3.2,3.16,10.72,10.72,0,0,1-5,1.09h-6.88Z"/><path d="M266,78.85h-6.44V36.25H266Z"/><path d="M283.17,36.22h6.36V78.85h-6.36Zm2.93,18.49h7.79a4.62,4.62,0,0,0,2.08-.44A3,3,0,0,0,297.3,53a4.41,4.41,0,0,0,.49-2.06V46.39a4.7,4.7,0,0,0-.46-2.17A3.11,3.11,0,0,0,296,42.83a4.29,4.29,0,0,0-2.1-.49H286.1V36.22h7.32a13.86,13.86,0,0,1,5.86,1.13A8.17,8.17,0,0,1,303,40.66a10.09,10.09,0,0,1,1.29,5.23v5A10.57,10.57,0,0,1,303,56.24a8.32,8.32,0,0,1-3.73,3.42,13.45,13.45,0,0,1-5.85,1.17H286.1Zm6.62,4.8,5.95-1.35,6.82,20.69h-7Z"/><path d="M328.39,78.85H322V36.25h6.44Z"/><path d="M150.71,111.85h-2.53V86.29h2.53Z"/><path d="M157.29,93.6h2.54v18.25h-2.54ZM165.91,99a3.55,3.55,0,0,0-.76-2.49,2.9,2.9,0,0,0-2.28-.83,2.81,2.81,0,0,0-2.29.91,4.29,4.29,0,0,0-.75,2.76l-.37-2.63a5.5,5.5,0,0,1,1.72-2.55,4.12,4.12,0,0,1,2.62-.85,4.25,4.25,0,0,1,3.49,1.42A6.68,6.68,0,0,1,168.44,99v12.89h-2.53Z"/><path d="M173.42,93.6h7.87V96h-7.87Zm2.91,17.11a5.45,5.45,0,0,1-1-3.61V88.29h2.53v18.85a2.79,2.79,0,0,0,.53,1.81,1.91,1.91,0,0,0,1.56.63h1.37v2.35h-1.72A4,4,0,0,1,176.33,110.71Z"/><path d="M189,111.4a4.68,4.68,0,0,1-1.9-2.08,7.42,7.42,0,0,1-.66-3.27V99.72a8.65,8.65,0,0,1,.64-3.48A4.82,4.82,0,0,1,189,94a5.45,5.45,0,0,1,2.92-.76,5.84,5.84,0,0,1,3,.7,4.53,4.53,0,0,1,1.86,2,7.32,7.32,0,0,1,.64,3.21v4.54H188V101.4h6.8V99.3a4.23,4.23,0,0,0-.77-2.7,2.63,2.63,0,0,0-2.16-1,2.5,2.5,0,0,0-2.13,1,4.67,4.67,0,0,0-.76,2.87v6.6a4.15,4.15,0,0,0,.79,2.68,2.77,2.77,0,0,0,2.24,1,2.84,2.84,0,0,0,2.1-.75,3,3,0,0,0,.74-2.15v-.1h2.53v.1a5.18,5.18,0,0,1-1.4,3.89,5.47,5.47,0,0,1-4,1.37A6,6,0,0,1,189,111.4Z"/><path d="M203.42,93.6H206v18.25h-2.53Zm8.29,2h-.06a6.24,6.24,0,0,0-4.06,1.22A4.61,4.61,0,0,0,206,100.3l-.37-3.52a7.3,7.3,0,0,1,2.64-2.57,7,7,0,0,1,3.55-.93v2.36Z"/><path d="M217.19,93.6h2.53v18.25h-2.53ZM225.8,99a3.6,3.6,0,0,0-.75-2.49,2.94,2.94,0,0,0-2.29-.83,2.77,2.77,0,0,0-2.28.91,4.23,4.23,0,0,0-.76,2.76l-.37-2.63a5.52,5.52,0,0,1,1.73-2.55,4.07,4.07,0,0,1,2.61-.85,4.24,4.24,0,0,1,3.49,1.42A6.62,6.62,0,0,1,228.34,99v12.89H225.8Z"/><path d="M235.65,110.84a5.48,5.48,0,0,1-1.19-3.85,6.53,6.53,0,0,1,1.4-4.59,5.43,5.43,0,0,1,4.22-1.52h3.26l.24,1.83H240.1a3,3,0,0,0-2.5,1.07,5.2,5.2,0,0,0-.82,3.21,3.5,3.5,0,0,0,.75,2.45,3,3,0,0,0,2.27.81,3.33,3.33,0,0,0,2.53-.89,3.73,3.73,0,0,0,.85-2.68l.37,1.51a4.74,4.74,0,0,1-.5,2.18,3,3,0,0,1-1.44,1.31,5.67,5.67,0,0,1-2.37.43A4.74,4.74,0,0,1,235.65,110.84Zm7.53-12.35a3.1,3.1,0,0,0-.82-2.29,3.16,3.16,0,0,0-2.31-.81,2.62,2.62,0,0,0-2.05.81,3.28,3.28,0,0,0-.73,2.29h-2.44a5.09,5.09,0,0,1,1.39-3.84,5.34,5.34,0,0,1,3.92-1.37,6.35,6.35,0,0,1,2.91.62,4.22,4.22,0,0,1,1.85,1.77,5.87,5.87,0,0,1,.63,2.82v13.36h-2.35Z"/><path d="M250.51,93.6h7.88V96h-7.88Zm2.91,17.11a5.51,5.51,0,0,1-1-3.61V88.29h2.54v18.85a2.79,2.79,0,0,0,.52,1.81,1.94,1.94,0,0,0,1.57.63h1.37v2.35h-1.72A4,4,0,0,1,253.42,110.71Z"/><path d="M264.27,87.29h2.53v2.53h-2.53Zm0,6.31h2.53v18.25h-2.53Z"/><path d="M275.61,111.49a4.25,4.25,0,0,1-1.79-1.82,6.23,6.23,0,0,1-.62-2.87V98.5a6,6,0,0,1,.62-2.82,4.16,4.16,0,0,1,1.79-1.78,6.77,6.77,0,0,1,5.66,0,4.1,4.1,0,0,1,1.79,1.78,6,6,0,0,1,.62,2.82v8.35a6.08,6.08,0,0,1-.62,2.84,4.1,4.1,0,0,1-1.79,1.8,6.77,6.77,0,0,1-5.66,0Zm4.83-2.49a3,3,0,0,0,.71-2.15V98.5a3,3,0,0,0-.72-2.11,2.65,2.65,0,0,0-2-.75,2.59,2.59,0,0,0-2,.75,3,3,0,0,0-.71,2.11v8.35a3,3,0,0,0,.71,2.15,2.59,2.59,0,0,0,2,.75A2.66,2.66,0,0,0,280.44,109Z"/><path d="M289.71,93.6h2.54v18.25h-2.54ZM298.33,99a3.55,3.55,0,0,0-.76-2.49,2.9,2.9,0,0,0-2.28-.83,2.81,2.81,0,0,0-2.29.91,4.29,4.29,0,0,0-.75,2.76l-.37-2.63a5.5,5.5,0,0,1,1.72-2.55,4.12,4.12,0,0,1,2.62-.85,4.25,4.25,0,0,1,3.49,1.42A6.68,6.68,0,0,1,300.86,99v12.89h-2.53Z"/><path d="M308.18,110.84A5.43,5.43,0,0,1,307,107a6.58,6.58,0,0,1,1.4-4.59,5.44,5.44,0,0,1,4.23-1.52h3.25l.25,1.83h-3.48a2.94,2.94,0,0,0-2.5,1.07,5.2,5.2,0,0,0-.83,3.21,3.46,3.46,0,0,0,.76,2.45,3,3,0,0,0,2.27.81,3.34,3.34,0,0,0,2.53-.89,3.78,3.78,0,0,0,.84-2.68l.37,1.51a4.62,4.62,0,0,1-.5,2.18,3,3,0,0,1-1.43,1.31,5.76,5.76,0,0,1-2.38.43A4.7,4.7,0,0,1,308.18,110.84Zm7.52-12.35a3.06,3.06,0,0,0-.82-2.29,3.13,3.13,0,0,0-2.31-.81,2.62,2.62,0,0,0-2.05.81,3.33,3.33,0,0,0-.72,2.29h-2.45a5.09,5.09,0,0,1,1.39-3.84,5.36,5.36,0,0,1,3.92-1.37,6.39,6.39,0,0,1,2.92.62,4.2,4.2,0,0,1,1.84,1.77,5.76,5.76,0,0,1,.64,2.82v13.36H315.7Z"/><path d="M327,107.05a2.84,2.84,0,0,0,.52,1.8,1.79,1.79,0,0,0,1.47.64h1.16v2.36h-1.4a4,4,0,0,1-3.16-1.27,5.23,5.23,0,0,1-1.12-3.57V86.29H327Z"/><path class="cls-1" d="M61.44,0A61.44,61.44,0,1,1,0,61.44,61.44,61.44,0,0,1,61.44,0Zm16.5,6.64a58.07,58.07,0,0,1,39.37,47.1l-2-.21c-.35,1.5-.67,1.54-.67,3.34,0,1.59,2,2.65,2,6,0,.9-2.12,2.69-2.22,3l-3.15-3.68v4.52l-.48,0L110,58.09l-1.75.55-2.08-6.4-6.85,7.15-.08,5L97,65.92,94.7,52.49l-1.39,1-3.16-4.34-4.71.14-1.81-2.1-1.85.51-3.64-4.25-.7.49,2.25,5.88h2.62v-1h1.33c1,2.64,2,1.07,2,2.65,0,5.51-6.85,9.56-11.33,10.6.24,1,.14,2,1.33,2,2.51,0,1.26-.44,4-.66-.13,5.63-6.5,12.36-9.22,16.55l1.22,8.63c.32,1.88-3.92,3.86-5.36,6l.69,3.3-2,.79c-.34,3.4-3.66,7.17-7.38,7.17h-4c0-4.66-3.33-11.3-3.33-14.59,0-2.79,1.33-3.17,1.33-6.62,0-3.2-3.33-7.78-3.33-8.62V70.85H45.64c-.4-1.49-.16-2-2-2h-.91l-5.34,1H34.56c-2.26,0-6.25-7.72-6.25-8.67v-8c0-3.45,3-7.21,5-8.67V41.18l2.81-3,1.56-.28c3.36,0,3-2,5-2h6.63v4.9l6.45,3,.61-3c2.92.74,3.69,2.14,7.29,2.14H65c2.48,0,2.61-3.53,2.61-6.3l-5.22.55-2.28-5.31-2.26.64c.41,1.91.63,1.11.63,2.72,0,.94-.72,1.05-1.3,1.4l-2.26-6.16L50,26.67l-.65.68L53.51,32c-.55,1.68-.62,6.52-2.9,3.13l2.14-1.1-5.32-6L44.24,29.4,41.1,32.63c-.33,2.61-1,3.92-3.53,3.92-1.69,0-.67-.47-3.26-.7v-6h5.75l-1.94-4.91-.81.44V24l9.83-4.49c-.18-1.4-.4-.65-.4-2.18,0-.09.65-1.32.66-1.33l2.52,1.56-.6-2.87-3.89.8L44.71,12c3.08-1.62,12-7.19,12-7.19h1.47C60.33,4.85,66,6.93,67,8.18l-5.4-.54,4,3.27.39-1.4,3-.81,0-1.85h1.35v2l7.63-2.21Zm39,65.19c-.15.85-.32,1.68-.51,2.51l-.31-2.15.82-.36Zm-1.92,8c-.15,0-.29.44-.45,1h-.28v-1ZM11.4,93.18A57.43,57.43,0,0,1,3.49,75l10.82,5.22,0,3.23c0,1.19-2,3.71-2.66,4.67l-.3,5.11Z"/></g></g></svg>