<svg xmlns="http://www.w3.org/2000/svg" viewBox="0 0 231.91 257.87"><defs><style>.cls-1{fill:#2424d1;}.cls-2{fill:#1e1ea5;}.cls-2,.cls-3{fill-rule:evenodd;}.cls-3{fill:#fff;stroke:#2424d1;stroke-miterlimit:10;stroke-width:2px;}</style></defs><title>logogi1</title><g id="Layer_2" data-name="Layer 2"><g id="Layer_1-2" data-name="Layer 1"><path class="cls-1" d="M29.69,187.51v15.77a15.8,15.8,0,0,1-1.54,7.27,10.78,10.78,0,0,1-4.45,4.64,14.39,14.39,0,0,1-7,1.61,15.48,15.48,0,0,1-7.11-1.52A10.47,10.47,0,0,1,5,210.85a14.55,14.55,0,0,1-1.57-7V176.12A16.49,16.49,0,0,1,5,168.71,10.76,10.76,0,0,1,9.44,164a14.23,14.23,0,0,1,7-1.61A14.34,14.34,0,0,1,23.33,164a10.25,10.25,0,0,1,4.38,4.57,16.18,16.18,0,0,1,1.54,7.18v3.37H20.86v-3.37a7.16,7.16,0,0,0-.52-2.88,3.91,3.91,0,0,0-1.5-1.81,4.42,4.42,0,0,0-2.38-.62,4.85,4.85,0,0,0-2.64.68,4.35,4.35,0,0,0-1.69,2,7.36,7.36,0,0,0-.58,3.08v27.74a5.59,5.59,0,0,0,.6,2.64,4,4,0,0,0,1.76,1.72,5.93,5.93,0,0,0,2.77.59,5.41,5.41,0,0,0,2.71-.64,4.27,4.27,0,0,0,1.74-1.85,6.66,6.66,0,0,0,.61-3v-8.21H16.49v-7.63Z" transform="translate(-3.45)"/><path class="cls-1" d="M56.32,215.26a10.7,10.7,0,0,1-4.6-4.43,14.37,14.37,0,0,1-1.59-7V175.38a14.5,14.5,0,0,1,1.59-7,10.58,10.58,0,0,1,4.6-4.43,15.89,15.89,0,0,1,7.26-1.52,15.89,15.89,0,0,1,7.26,1.52,10.58,10.58,0,0,1,4.6,4.43,14.5,14.5,0,0,1,1.59,7v28.45a14.37,14.37,0,0,1-1.59,7,10.7,10.7,0,0,1-4.6,4.43,15.76,15.76,0,0,1-7.26,1.54A15.76,15.76,0,0,1,56.32,215.26Zm10.16-7a4.37,4.37,0,0,0,1.83-1.88,6.55,6.55,0,0,0,.62-3v-27.6a6.57,6.57,0,0,0-.62-3A4.27,4.27,0,0,0,66.48,171a6.79,6.79,0,0,0-5.8,0,4.27,4.27,0,0,0-1.83,1.86,6.57,6.57,0,0,0-.62,3v27.6a6.55,6.55,0,0,0,.62,3,4.37,4.37,0,0,0,1.83,1.88,6.7,6.7,0,0,0,5.8,0Z" transform="translate(-3.45)"/><path class="cls-1" d="M98.2,163h8.07v53.29H98.2Zm5.24,45.63h8.29a3.69,3.69,0,0,0,2.88-1.12,4.57,4.57,0,0,0,1-3.17V174.91a4.57,4.57,0,0,0-1-3.17,3.69,3.69,0,0,0-2.88-1.12h-8.29V163h8.66a13.43,13.43,0,0,1,6.26,1.35,9.29,9.29,0,0,1,4,3.94,13.14,13.14,0,0,1,1.37,6.25v30.21a13.05,13.05,0,0,1-1.39,6.23,9.41,9.41,0,0,1-4,4,13.5,13.5,0,0,1-6.27,1.35h-8.62Z" transform="translate(-3.45)"/><path class="cls-1" d="M152.55,216.25h-8.07V163h8.07Z" transform="translate(-3.45)"/><path class="cls-1" d="M174.05,162.92H182v53.33h-7.95Zm3.66,23.13h9.75a5.77,5.77,0,0,0,2.61-.55,3.78,3.78,0,0,0,1.66-1.6,5.64,5.64,0,0,0,.61-2.58v-5.68a6,6,0,0,0-.57-2.71,3.9,3.9,0,0,0-1.69-1.74,5.34,5.34,0,0,0-2.62-.61h-9.75v-7.66h9.17a17.33,17.33,0,0,1,7.33,1.41,10.21,10.21,0,0,1,4.65,4.14,12.6,12.6,0,0,1,1.62,6.55v6.23a13.22,13.22,0,0,1-1.62,6.72,10.37,10.37,0,0,1-4.67,4.27,16.75,16.75,0,0,1-7.31,1.47h-9.17Zm8.29,6,7.44-1.69L202,216.25h-8.73Z" transform="translate(-3.45)"/><path class="cls-1" d="M222.16,165.23h13.19v6.45h-3.22v37.24h3.22v6.45H222.16v-6.45h3.23V171.68h-3.23Z" transform="translate(-3.45)"/><path d="M10.49,257.54H7.32v-32h3.17Z" transform="translate(-3.45)"/><path d="M18.72,234.71h3.17v22.83H18.72Zm10.78,6.71a4.51,4.51,0,0,0-.94-3.13,3.74,3.74,0,0,0-2.86-1,3.5,3.5,0,0,0-2.86,1.14,5.37,5.37,0,0,0-.95,3.46l-.46-3.3a7,7,0,0,1,2.15-3.19,5.24,5.24,0,0,1,3.28-1.06,5.31,5.31,0,0,1,4.37,1.77,8.36,8.36,0,0,1,1.44,5.34v16.12H29.5Z" transform="translate(-3.45)"/><path d="M38.9,234.71h9.85v2.95H38.9Zm3.64,21.41a6.86,6.86,0,0,1-1.29-4.52V228.07h3.17v23.57a3.45,3.45,0,0,0,.66,2.27,2.39,2.39,0,0,0,2,.79h1.71v2.95H46.6A5,5,0,0,1,42.54,256.12Z" transform="translate(-3.45)"/><path d="M58.4,257a5.88,5.88,0,0,1-2.37-2.6,9.31,9.31,0,0,1-.83-4.1v-7.92A10.56,10.56,0,0,1,56,238a6,6,0,0,1,2.32-2.75,6.77,6.77,0,0,1,3.65-.95,7.37,7.37,0,0,1,3.7.87A5.64,5.64,0,0,1,68,237.72a9.2,9.2,0,0,1,.81,4v5.67H57.14v-2.95h8.51v-2.63a5.21,5.21,0,0,0-1-3.38,3.26,3.26,0,0,0-2.7-1.2,3.11,3.11,0,0,0-2.66,1.27,5.9,5.9,0,0,0-1,3.59v8.25a5.11,5.11,0,0,0,1,3.35,3.41,3.41,0,0,0,2.79,1.2,3.53,3.53,0,0,0,2.63-.94,3.68,3.68,0,0,0,.94-2.69v-.13h3.16v.13a6.44,6.44,0,0,1-1.76,4.86,6.79,6.79,0,0,1-5,1.72A7.48,7.48,0,0,1,58.4,257Z" transform="translate(-3.45)"/><path d="M76.43,234.71H79.6v22.83H76.43Zm10.37,2.55h-.07a7.78,7.78,0,0,0-5.08,1.53,5.74,5.74,0,0,0-2.05,4.3l-.46-4.4a9.16,9.16,0,0,1,3.3-3.22,8.81,8.81,0,0,1,4.44-1.16v2.95Z" transform="translate(-3.45)"/><path d="M93.66,234.71h3.17v22.83H93.66Zm10.78,6.71a4.51,4.51,0,0,0-1-3.13,3.71,3.71,0,0,0-2.86-1,3.52,3.52,0,0,0-2.86,1.14,5.37,5.37,0,0,0-.94,3.46l-.46-3.3a7,7,0,0,1,2.15-3.19,5.22,5.22,0,0,1,3.28-1.06,5.32,5.32,0,0,1,4.37,1.77,8.36,8.36,0,0,1,1.44,5.34v16.12h-3.17Z" transform="translate(-3.45)"/><path d="M116.76,256.27a6.77,6.77,0,0,1-1.49-4.8c0-2.57.58-4.48,1.75-5.75a6.81,6.81,0,0,1,5.28-1.91h4.07l.31,2.29h-4.35a3.71,3.71,0,0,0-3.13,1.34,6.56,6.56,0,0,0-1,4,4.27,4.27,0,0,0,1,3.05,3.67,3.67,0,0,0,2.83,1,4.17,4.17,0,0,0,3.17-1.11,4.73,4.73,0,0,0,1-3.36l.47,1.89a5.86,5.86,0,0,1-.63,2.73,3.76,3.76,0,0,1-1.79,1.64,7.17,7.17,0,0,1-3,.54A5.85,5.85,0,0,1,116.76,256.27Zm9.41-15.45a3.86,3.86,0,0,0-1-2.86,3.94,3.94,0,0,0-2.89-1,3.28,3.28,0,0,0-2.56,1,4.13,4.13,0,0,0-.91,2.86h-3.06a6.41,6.41,0,0,1,1.74-4.8,6.67,6.67,0,0,1,4.9-1.71,8,8,0,0,1,3.65.77,5.35,5.35,0,0,1,2.31,2.23,7.2,7.2,0,0,1,.79,3.51v16.72h-3Z" transform="translate(-3.45)"/><path d="M135.35,234.71h9.86v2.95h-9.86ZM139,256.12a6.92,6.92,0,0,1-1.28-4.52V228.07h3.16v23.57a3.45,3.45,0,0,0,.66,2.27,2.41,2.41,0,0,0,2,.79h1.72v2.95h-2.16A5,5,0,0,1,139,256.12Z" transform="translate(-3.45)"/><path d="M152.56,226.81h3.17V230h-3.17Zm0,7.9h3.17v22.83h-3.17Z" transform="translate(-3.45)"/><path d="M166.75,257.09a5.2,5.2,0,0,1-2.24-2.28,7.78,7.78,0,0,1-.77-3.58V240.85a7.51,7.51,0,0,1,.77-3.53,5.21,5.21,0,0,1,2.24-2.24,8.52,8.52,0,0,1,7.08,0,5.23,5.23,0,0,1,2.25,2.24,7.51,7.51,0,0,1,.77,3.53v10.44a7.66,7.66,0,0,1-.77,3.55,5.22,5.22,0,0,1-2.25,2.26,7.58,7.58,0,0,1-3.54.77A7.49,7.49,0,0,1,166.75,257.09Zm6-3.11a3.79,3.79,0,0,0,.89-2.69V240.85a3.67,3.67,0,0,0-.9-2.64,3.31,3.31,0,0,0-2.51-1,3.21,3.21,0,0,0-2.48,1,3.71,3.71,0,0,0-.88,2.64v10.44a3.79,3.79,0,0,0,.88,2.69,3.2,3.2,0,0,0,2.48.94A3.28,3.28,0,0,0,172.79,254Z" transform="translate(-3.45)"/><path d="M184.4,234.71h3.16v22.83H184.4Zm10.77,6.71a4.51,4.51,0,0,0-.94-3.13,3.71,3.71,0,0,0-2.86-1,3.5,3.5,0,0,0-2.86,1.14,5.37,5.37,0,0,0-.95,3.46l-.46-3.3a7,7,0,0,1,2.16-3.19,5.22,5.22,0,0,1,3.28-1.06,5.3,5.3,0,0,1,4.36,1.77,8.36,8.36,0,0,1,1.44,5.34v16.12h-3.17Z" transform="translate(-3.45)"/><path d="M207.5,256.27a6.77,6.77,0,0,1-1.5-4.8c0-2.57.59-4.48,1.75-5.75a6.84,6.84,0,0,1,5.29-1.91h4.07l.31,2.29h-4.36a3.71,3.71,0,0,0-3.12,1.34,6.56,6.56,0,0,0-1,4,4.32,4.32,0,0,0,.94,3.05,3.69,3.69,0,0,0,2.84,1,4.19,4.19,0,0,0,3.17-1.11,4.73,4.73,0,0,0,1-3.36l.46,1.89a5.74,5.74,0,0,1-.62,2.73,3.79,3.79,0,0,1-1.8,1.64,7.17,7.17,0,0,1-3,.54A5.84,5.84,0,0,1,207.5,256.27Zm9.41-15.45a3.86,3.86,0,0,0-1-2.86,4,4,0,0,0-2.89-1,3.31,3.31,0,0,0-2.57,1,4.18,4.18,0,0,0-.91,2.86h-3.06a6.41,6.41,0,0,1,1.74-4.8,6.71,6.71,0,0,1,4.91-1.71,8,8,0,0,1,3.65.77,5.35,5.35,0,0,1,2.31,2.23,7.31,7.31,0,0,1,.79,3.51v16.72h-3Z" transform="translate(-3.45)"/><path d="M231,251.53a3.53,3.53,0,0,0,.64,2.26,2.26,2.26,0,0,0,1.84.8H235v3h-1.76a5,5,0,0,1-3.94-1.59,6.46,6.46,0,0,1-1.4-4.46V225.56H231Z" transform="translate(-3.45)"/><path class="cls-2" d="M119,0A76.87,76.87,0,1,1,42.13,76.87,76.88,76.88,0,0,1,119,0Zm20.64,8.31a72.58,72.58,0,0,1,49.25,58.93L186.43,67c-.44,1.87-.84,1.92-.84,4.17,0,2,2.52,3.31,2.52,7.51,0,1.12-2.66,3.37-2.77,3.76l-4-4.6v5.66l-.6,0-1-10.77-2.19.69-2.6-8-8.58,9-.1,6.3-2.74,1.88-2.92-16.81L158.87,67l-4-5.44-5.9.18-2.26-2.64-2.32.65-4.55-5.32L139,55l2.82,7.35h3.28V61.11h1.66c1.21,3.31,2.5,1.35,2.5,3.32,0,6.9-8.56,12-14.17,13.27.3,1.24.18,2.49,1.66,2.49,3.14,0,1.58-.55,5-.83-.16,7-8.13,15.46-11.53,20.7l1.52,10.81c.4,2.34-4.9,4.83-6.7,7.47l.86,4.14-2.44,1c-.43,4.25-4.58,9-9.24,9h-5c0-5.83-4.17-14.13-4.17-18.25,0-3.49,1.67-4,1.67-8.29,0-4-4.17-9.73-4.17-10.78V88.64H99.23c-.5-1.86-.19-2.51-2.5-2.51H95.59l-6.68,1.26H85.36c-2.82,0-7.82-9.66-7.82-10.85v-10c0-4.32,3.71-9,6.26-10.84V51.52l3.52-3.82,2-.35c4.2,0,3.7-2.5,6.26-2.5h8.29V51l8.07,3.7.76-3.74c3.66.92,4.62,2.67,9.12,2.67h1.64c3.09,0,3.26-4.41,3.26-7.88l-6.54.69-2.84-6.65-2.83.81c.51,2.38.79,1.39.79,3.39,0,1.19-.91,1.32-1.64,1.76L110.78,38l-6.07-4.66-.81.85,5.17,5.84c-.68,2.1-.76,8.15-3.62,3.91l2.67-1.37-6.65-7.49-4,1.68-3.93,4c-.41,3.26-1.24,4.89-4.42,4.89-2.11,0-.83-.58-4.08-.87V37.34h7.2L89.82,31.2l-1,.55V30.08l12.3-5.63c-.23-1.75-.51-.81-.51-2.72,0-.11.82-1.65.84-1.67l3.15,2-.75-3.59-4.87,1-.9-4.37c3.85-2,15-9,15-9H115c2.65,0,9.77,2.6,10.93,4.17l-6.75-.67,5,4.09.49-1.75,3.73-1,0-2.32h1.68v2.5l9.55-2.76Zm48.82,81.56c-.19,1.06-.4,2.1-.64,3.14l-.38-2.7,1-.44Zm-2.4,10c-.18,0-.37.56-.57,1.25h-.35V99.9ZM56.39,116.58a71.93,71.93,0,0,1-9.9-22.8L60,100.3l.07,4c0,1.49-2.54,4.65-3.34,5.85l-.37,6.39Z" transform="translate(-3.45)"/><path class="cls-3" d="M134,158.76l11-55.64L156,119.85c23.91-9.6,37.32-25.42,39.33-49.78,19.64,34.33,7.7,65.1-17.18,83.13l11.32,17.07L134,158.76Z" transform="translate(-3.45)"/></g></g></svg>