<svg xmlns="http://www.w3.org/2000/svg" viewBox="0 0 324.03 131.92"><defs><style>.cls-1,.cls-2,.cls-3{fill:#fff;}.cls-2,.cls-3{fill-rule:evenodd;}.cls-3{stroke:#2424d1;stroke-miterlimit:10;}</style></defs><title>logo-white</title><g id="Layer_2" data-name="Layer 2"><g id="Layer_1-2" data-name="Layer 1"><path class="cls-1" d="M39.42,48.58V69.5a21,21,0,0,1-2.05,9.66,14.24,14.24,0,0,1-5.91,6.16,18.94,18.94,0,0,1-9.32,2.14,20.45,20.45,0,0,1-9.44-2,13.89,13.89,0,0,1-6-5.89,19.18,19.18,0,0,1-2.1-9.27V33.44a21.82,21.82,0,0,1,2.05-9.83,14.2,14.2,0,0,1,5.91-6.23,19.07,19.07,0,0,1,9.32-2.14A18.84,18.84,0,0,1,31,17.31a13.65,13.65,0,0,1,5.82,6.06,21.52,21.52,0,0,1,2,9.54v4.47H27.69V32.91A9.7,9.7,0,0,0,27,29.09a5.16,5.16,0,0,0-2-2.41,5.81,5.81,0,0,0-3.16-.83,6.53,6.53,0,0,0-3.5.9,5.78,5.78,0,0,0-2.24,2.6,9.79,9.79,0,0,0-.78,4.09V70.28a7.45,7.45,0,0,0,.8,3.51,5.37,5.37,0,0,0,2.34,2.28,8,8,0,0,0,3.67.78,7.16,7.16,0,0,0,3.6-.85,5.69,5.69,0,0,0,2.32-2.46,8.81,8.81,0,0,0,.8-3.94V58.7h-7V48.58Z" transform="translate(-4.57 -3.42)"/><path class="cls-1" d="M148.46,16h10.71V86.73H148.46Zm7,60.59h11a4.87,4.87,0,0,0,3.82-1.49,6.07,6.07,0,0,0,1.34-4.2v-39a6.08,6.08,0,0,0-1.34-4.21,4.87,4.87,0,0,0-3.82-1.49h-11V16h11.49a17.81,17.81,0,0,1,8.32,1.8A12.34,12.34,0,0,1,180.51,23a17.45,17.45,0,0,1,1.82,8.3V71.4a17.32,17.32,0,0,1-1.84,8.27,12.37,12.37,0,0,1-5.31,5.26,17.81,17.81,0,0,1-8.32,1.8H155.42Z" transform="translate(-4.57 -3.42)"/><path class="cls-1" d="M220.61,86.73h-10.7V16h10.7Z" transform="translate(-4.57 -3.42)"/><path class="cls-1" d="M249.16,15.92h10.56V86.73H249.16ZM254,46.63H267a7.64,7.64,0,0,0,3.46-.73,5,5,0,0,0,2.21-2.12,7.49,7.49,0,0,0,.8-3.43V32.81a8,8,0,0,0-.75-3.6,5.16,5.16,0,0,0-2.24-2.31,7.16,7.16,0,0,0-3.48-.81H254V15.92h12.16a23,23,0,0,1,9.74,1.88,13.65,13.65,0,0,1,6.18,5.5A16.82,16.82,0,0,1,284.25,32v8.27a17.74,17.74,0,0,1-2.14,8.94,13.84,13.84,0,0,1-6.21,5.66,22.25,22.25,0,0,1-9.71,1.95H254Zm11,8,9.87-2.24,11.34,34.36H274.66Z" transform="translate(-4.57 -3.42)"/><path class="cls-1" d="M324.28,86.73H313.57V16h10.71Z" transform="translate(-4.57 -3.42)"/><path class="cls-1" d="M40.83,47.06V68a21,21,0,0,1-2,9.66,14.24,14.24,0,0,1-5.91,6.16,19,19,0,0,1-9.32,2.14,20.43,20.43,0,0,1-9.44-2,13.84,13.84,0,0,1-6-5.89A19.18,19.18,0,0,1,6,68.76V31.92a21.72,21.72,0,0,1,2-9.83,14.2,14.2,0,0,1,5.91-6.23,19,19,0,0,1,9.32-2.14,18.87,18.87,0,0,1,9.12,2.07,13.65,13.65,0,0,1,5.82,6.06,21.52,21.52,0,0,1,2,9.54v4.48H29.1V31.39a9.7,9.7,0,0,0-.68-3.82,5.16,5.16,0,0,0-2-2.41,5.81,5.81,0,0,0-3.16-.83,6.59,6.59,0,0,0-3.51.9,5.74,5.74,0,0,0-2.23,2.61,9.71,9.71,0,0,0-.78,4.08V68.76a7.33,7.33,0,0,0,.8,3.51,5.26,5.26,0,0,0,2.34,2.28,8,8,0,0,0,3.67.78,7.18,7.18,0,0,0,3.6-.85A5.61,5.61,0,0,0,29.46,72a8.67,8.67,0,0,0,.81-3.94V57.18h-7V47.06Z" transform="translate(-4.57 -3.42)"/><path class="cls-1" d="M149.87,14.45h10.71V85.21H149.87Zm7,60.59h11a4.86,4.86,0,0,0,3.82-1.48A6.1,6.1,0,0,0,173,69.35v-39a6.08,6.08,0,0,0-1.34-4.21,4.87,4.87,0,0,0-3.82-1.49h-11V14.45h11.49a17.84,17.84,0,0,1,8.32,1.8,12.31,12.31,0,0,1,5.28,5.24,17.39,17.39,0,0,1,1.82,8.29v40.1a17.21,17.21,0,0,1-1.85,8.27,12.35,12.35,0,0,1-5.3,5.26,17.81,17.81,0,0,1-8.32,1.8H156.83Z" transform="translate(-4.57 -3.42)"/><path class="cls-1" d="M222,85.21h-10.7V14.45H222Z" transform="translate(-4.57 -3.42)"/><path class="cls-1" d="M250.57,14.4h10.56V85.21H250.57Zm4.87,30.71h12.94a7.57,7.57,0,0,0,3.45-.73,4.9,4.9,0,0,0,2.22-2.12,7.45,7.45,0,0,0,.8-3.43V31.29a8,8,0,0,0-.75-3.6,5.21,5.21,0,0,0-2.24-2.31,7.15,7.15,0,0,0-3.48-.8H255.44V14.4H267.6a22.94,22.94,0,0,1,9.73,1.88,13.55,13.55,0,0,1,6.18,5.5,16.73,16.73,0,0,1,2.15,8.68v8.28a17.62,17.62,0,0,1-2.15,8.93,13.84,13.84,0,0,1-6.2,5.67,22.42,22.42,0,0,1-9.71,1.94H255.44Zm11,8,9.88-2.24,11.34,34.36H276.07Z" transform="translate(-4.57 -3.42)"/><path class="cls-1" d="M325.69,85.21H315V14.45h10.71Z" transform="translate(-4.57 -3.42)"/><path class="cls-2" d="M94.39,3.42A42.77,42.77,0,1,1,51.63,46.19,42.77,42.77,0,0,1,94.39,3.42Zm11.49,4.63a40.39,40.39,0,0,1,27.4,32.78l-1.37-.14a6.73,6.73,0,0,0-.47,2.32c0,1.1,1.41,1.84,1.41,4.17,0,.63-1.48,1.88-1.55,2.1l-2.19-2.56v3.15l-.34,0-.58-6-1.22.38-1.45-4.46-4.77,5,0,3.51-1.53,1L117.55,40l-1,.72-2.2-3-3.28.1-1.26-1.46-1.29.36-2.53-3-.49.34,1.57,4.09h1.82v-.7h.93c.67,1.84,1.39.75,1.39,1.85,0,3.84-4.77,6.66-7.89,7.38.17.69.1,1.38.93,1.38,1.75,0,.88-.3,2.78-.46-.09,3.92-4.52,8.6-6.41,11.52l.84,6c.23,1.31-2.72,2.69-3.73,4.16l.49,2.3-1.36.55c-.24,2.36-2.55,5-5.14,5H89c0-3.24-2.33-7.86-2.33-10.15,0-2,.93-2.21.93-4.61,0-2.23-2.32-5.42-2.32-6v-3.6H83.39c-.27-1-.1-1.4-1.39-1.4h-.63l-3.71.7h-2c-1.57,0-4.35-5.37-4.35-6V40.44c0-2.4,2.06-5,3.48-6V32.09l2-2.13,1.09-.19c2.33,0,2-1.4,3.48-1.4H86v3.41l4.49,2.06.42-2.08c2,.51,2.57,1.49,5.08,1.49h.91c1.72,0,1.81-2.46,1.81-4.39L95,29.25l-1.58-3.7L91.87,26c.28,1.32.44.77.44,1.89,0,.66-.51.73-.91,1l-1.58-4.28L86.44,22l-.45.47,2.88,3.25c-.38,1.17-.42,4.54-2,2.18l1.48-.77L84.64,23l-2.22.93-2.19,2.25c-.22,1.81-.68,2.72-2.45,2.72-1.18,0-.47-.32-2.27-.49V24.2h4l-1.35-3.42-.56.31v-.93L84.44,17c-.13-1-.28-.45-.28-1.52,0-.06.45-.92.46-.93l1.76,1.09-.42-2-2.71.56-.5-2.43c2.15-1.13,8.37-5,8.37-5h1c1.47,0,5.43,1.44,6.08,2.32l-3.76-.38L97.26,11l.26-1,2.08-.56,0-1.29h.94V9.58l5.31-1.53ZM133,53.42c-.11.59-.22,1.17-.35,1.75l-.22-1.5.57-.25ZM131.7,59c-.1,0-.2.31-.31.7h-.2V59ZM59.56,68.28A40.22,40.22,0,0,1,54.05,55.6l7.54,3.63,0,2.25c0,.82-1.4,2.58-1.85,3.25l-.21,3.55Z" transform="translate(-4.57 -3.42)"/><path class="cls-1" d="M16.25,134.9H12V92.45h4.21Z" transform="translate(-4.57 -3.42)"/><path class="cls-1" d="M28.37,104.59h4.21V134.9H28.37Zm14.31,8.91a6,6,0,0,0-1.26-4.15A4.89,4.89,0,0,0,37.63,108a4.67,4.67,0,0,0-3.8,1.52,7.11,7.11,0,0,0-1.25,4.58L32,109.7a9.33,9.33,0,0,1,2.87-4.23,6.89,6.89,0,0,1,4.35-1.4q3.89,0,5.79,2.35t1.92,7.08v21.4H42.68Z" transform="translate(-4.57 -3.42)"/><path class="cls-1" d="M56.35,104.59H69.44v3.92H56.35ZM61.19,133q-1.71-2-1.71-6V95.78h4.2v31.3a4.59,4.59,0,0,0,.88,3,3.19,3.19,0,0,0,2.6,1h2.28v3.92H66.57Q62.9,135.05,61.19,133Z" transform="translate(-4.57 -3.42)"/><path class="cls-1" d="M83.45,134.16a7.74,7.74,0,0,1-3.16-3.45,12.39,12.39,0,0,1-1.09-5.44V114.75A14.21,14.21,0,0,1,80.26,109a8.05,8.05,0,0,1,3.08-3.65,9.07,9.07,0,0,1,4.85-1.25,9.78,9.78,0,0,1,4.92,1.15,7.52,7.52,0,0,1,3.1,3.37,12.27,12.27,0,0,1,1.06,5.35v7.53H81.77v-3.91h11.3v-3.51a7,7,0,0,0-1.29-4.48A4.36,4.36,0,0,0,88.19,108a4.15,4.15,0,0,0-3.53,1.68,7.83,7.83,0,0,0-1.26,4.77v10.95a6.77,6.77,0,0,0,1.32,4.45,4.5,4.5,0,0,0,3.7,1.6,4.67,4.67,0,0,0,3.49-1.26,4.84,4.84,0,0,0,1.25-3.56v-.18h4.2v.18A8.59,8.59,0,0,1,95,133.06a9,9,0,0,1-6.6,2.28A9.8,9.8,0,0,1,83.45,134.16Z" transform="translate(-4.57 -3.42)"/><path class="cls-1" d="M108.58,104.59h4.21V134.9h-4.21ZM122.35,108h-.1a10.37,10.37,0,0,0-6.75,2,7.62,7.62,0,0,0-2.71,5.71l-.62-5.84a12.21,12.21,0,0,1,4.38-4.28,11.72,11.72,0,0,1,5.9-1.53V108Z" transform="translate(-4.57 -3.42)"/><path class="cls-1" d="M132.65,104.59h4.2V134.9h-4.2ZM147,113.5a6,6,0,0,0-1.26-4.15,4.91,4.91,0,0,0-3.79-1.37,4.65,4.65,0,0,0-3.8,1.52,7.05,7.05,0,0,0-1.26,4.58l-.61-4.38a9.31,9.31,0,0,1,2.86-4.23,6.93,6.93,0,0,1,4.35-1.4q3.88,0,5.8,2.35t1.91,7.08v21.4H147Z" transform="translate(-4.57 -3.42)"/><path class="cls-1" d="M164.51,133.22q-2-2.11-2-6.38c0-3.4.77-6,2.32-7.63s3.89-2.53,7-2.53h5.4l.41,3H171.9a4.88,4.88,0,0,0-4.14,1.78,8.65,8.65,0,0,0-1.38,5.34,5.74,5.74,0,0,0,1.26,4.06,4.9,4.9,0,0,0,3.77,1.34,5.54,5.54,0,0,0,4.2-1.47,6.27,6.27,0,0,0,1.4-4.45l.62,2.51a7.59,7.59,0,0,1-.84,3.62,4.94,4.94,0,0,1-2.38,2.17,9.47,9.47,0,0,1-3.94.72C167.82,135.34,165.84,134.63,164.51,133.22ZM177,112.71a5.07,5.07,0,0,0-1.36-3.79,5.19,5.19,0,0,0-3.84-1.35,4.33,4.33,0,0,0-3.4,1.35,5.44,5.44,0,0,0-1.21,3.79h-4.06a8.53,8.53,0,0,1,2.31-6.38,8.9,8.9,0,0,1,6.51-2.26,10.65,10.65,0,0,1,4.85,1,7,7,0,0,1,3.06,3,9.62,9.62,0,0,1,1,4.67V134.9H177Z" transform="translate(-4.57 -3.42)"/><path class="cls-1" d="M190.39,104.59h13.09v3.92H190.39ZM195.23,133q-1.71-2-1.71-6V95.78h4.2v31.3a4.53,4.53,0,0,0,.88,3,3.19,3.19,0,0,0,2.6,1h2.28v3.92h-2.87Q196.94,135.05,195.23,133Z" transform="translate(-4.57 -3.42)"/><path class="cls-1" d="M214.43,94.11h4.21v4.21h-4.21Zm0,10.48h4.21V134.9h-4.21Z" transform="translate(-4.57 -3.42)"/><path class="cls-1" d="M234.47,134.3a6.93,6.93,0,0,1-3-3,10.17,10.17,0,0,1-1-4.76V112.74a9.87,9.87,0,0,1,1-4.69,6.9,6.9,0,0,1,3-3,11.36,11.36,0,0,1,9.41,0,6.9,6.9,0,0,1,3,3,10,10,0,0,1,1,4.69v13.87a10.11,10.11,0,0,1-1,4.71,6.83,6.83,0,0,1-3,3,10.11,10.11,0,0,1-4.71,1A9.94,9.94,0,0,1,234.47,134.3Zm8-4.13a5,5,0,0,0,1.18-3.56V112.74a4.84,4.84,0,0,0-1.2-3.5,4.36,4.36,0,0,0-3.32-1.26,4.25,4.25,0,0,0-3.3,1.26,4.92,4.92,0,0,0-1.17,3.5v13.87a5,5,0,0,0,1.17,3.56,4.25,4.25,0,0,0,3.3,1.26A4.37,4.37,0,0,0,242.49,130.17Z" transform="translate(-4.57 -3.42)"/><path class="cls-1" d="M259.1,104.59h4.2V134.9h-4.2Zm14.3,8.91a6,6,0,0,0-1.25-4.15,4.92,4.92,0,0,0-3.8-1.37,4.63,4.63,0,0,0-3.79,1.52,7.05,7.05,0,0,0-1.26,4.58l-.61-4.38a9.24,9.24,0,0,1,2.86-4.23,6.93,6.93,0,0,1,4.35-1.4q3.89,0,5.8,2.35t1.91,7.08v21.4H273.4Z" transform="translate(-4.57 -3.42)"/><path class="cls-1" d="M291,133.22q-2-2.11-2-6.38c0-3.4.77-6,2.32-7.63s3.89-2.53,7-2.53h5.4l.41,3h-5.78a4.91,4.91,0,0,0-4.15,1.78,8.72,8.72,0,0,0-1.37,5.34,5.74,5.74,0,0,0,1.26,4.06,4.88,4.88,0,0,0,3.76,1.34,5.57,5.57,0,0,0,4.21-1.47,6.27,6.27,0,0,0,1.4-4.45l.61,2.51a7.59,7.59,0,0,1-.83,3.62,5,5,0,0,1-2.38,2.17,9.47,9.47,0,0,1-3.94.72C294.27,135.34,292.29,134.63,291,133.22Zm12.5-20.51a5.07,5.07,0,0,0-1.36-3.79,5.19,5.19,0,0,0-3.84-1.35,4.33,4.33,0,0,0-3.4,1.35,5.44,5.44,0,0,0-1.21,3.79h-4.06a8.53,8.53,0,0,1,2.31-6.38,8.87,8.87,0,0,1,6.51-2.26,10.58,10.58,0,0,1,4.84,1,7,7,0,0,1,3.07,3,9.62,9.62,0,0,1,1.05,4.67V134.9h-3.91Z" transform="translate(-4.57 -3.42)"/><path class="cls-1" d="M323.38,126.93a4.67,4.67,0,0,0,.86,3,3,3,0,0,0,2.44,1.07h1.93v3.91h-2.34a6.62,6.62,0,0,1-5.24-2.1,8.65,8.65,0,0,1-1.85-5.93V92.45h4.2Z" transform="translate(-4.57 -3.42)"/><path class="cls-3" d="M71,100.3,91.23,57.89l4.56,15.66c19.82-2.87,33.22-12.85,40-32,7,31.5-8.54,53.77-30.92,63.2l4.67,16L71,100.3Z" transform="translate(-4.57 -3.42)"/></g></g></svg>